<svg width="157" height="93" viewBox="0 0 157 93" fill="none" xmlns="http://www.w3.org/2000/svg">
<path d="M12.4328 79.9213C12.4054 79.8939 12.4054 79.8665 12.4328 79.8116L14.5187 75.9143L12.57 72.264C12.5426 72.2366 12.5426 72.2092 12.5426 72.1817C12.5426 72.1268 12.57 72.0994 12.6524 72.0994H13.613C13.6953 72.0994 13.7502 72.1268 13.7776 72.1817L15.5067 75.4752H16.6869V72.2366C16.6869 72.1543 16.7418 72.0994 16.8241 72.0994H17.7024C17.7298 72.0994 17.7847 72.0994 17.7847 72.1268C17.8121 72.1543 17.8121 72.1817 17.8121 72.2092V75.4477H19.0197L20.7763 72.1543C20.8037 72.0994 20.8586 72.0719 20.9409 72.0719H21.8741C21.929 72.0719 21.9564 72.0994 21.9839 72.1268C22.0113 72.1543 22.0113 72.1817 21.9839 72.2366L20.0352 75.8869L22.1211 79.7841C22.1211 79.8116 22.1211 79.8116 22.1211 79.839C22.1211 79.8939 22.0936 79.9213 22.0113 79.9213H20.9684C20.886 79.9213 20.8311 79.8939 20.8037 79.839L19.0197 76.4358H17.8396V79.839C17.8396 79.8665 17.8396 79.9213 17.8121 79.9213C17.7847 79.9488 17.7572 79.9488 17.7298 79.9488H16.8515C16.7692 79.9488 16.7143 79.8939 16.7143 79.8116V76.4632H15.5067L13.7228 79.8665C13.6953 79.9214 13.6404 79.9488 13.5581 79.9488H12.5426C12.4877 79.9488 12.4603 79.9488 12.4328 79.9213Z" fill="#2ED9C3"/>
<path d="M23.9325 79.839V72.2641C23.9325 72.1817 23.9599 72.1268 24.0423 72.1268H24.8931C24.9205 72.1268 24.9754 72.1268 25.0029 72.1543C25.0303 72.1817 25.0303 72.2092 25.0303 72.2366V75.8045C25.0303 76.4358 25.0029 77.1494 24.9754 77.9727C24.948 78.1923 24.948 78.3295 24.948 78.4119H24.9754C25.3871 77.6434 25.8537 76.7651 26.43 75.8045L28.5982 72.1817C28.6257 72.1268 28.6806 72.0994 28.7355 72.0994H29.7235C29.7509 72.0994 29.8058 72.0994 29.8058 72.1268C29.8333 72.1543 29.8333 72.1817 29.8333 72.2092V79.839C29.8333 79.8665 29.8333 79.9214 29.8058 79.9214C29.7784 79.9488 29.7509 79.9488 29.7235 79.9488H28.8727C28.8452 79.9488 28.7904 79.9488 28.7629 79.9214C28.7355 79.8939 28.7355 79.8665 28.7355 79.839V76.4083C28.7355 75.338 28.7629 74.4323 28.8178 73.6638H28.7904C28.4061 74.3774 27.8847 75.3105 27.226 76.4083L25.1401 79.8939C25.1127 79.9488 25.0578 79.9763 25.0029 79.9763H24.0148C23.9599 79.9488 23.9325 79.9214 23.9325 79.839Z" fill="#2ED9C3"/>
<path d="M33.9776 79.839V73.1423H31.8368C31.7545 73.1423 31.7271 73.0874 31.7271 73.0051V72.2366C31.7271 72.1543 31.7545 72.0994 31.8368 72.0994H37.2436C37.3259 72.0994 37.3534 72.1543 37.3534 72.2366V73.0051C37.3534 73.0874 37.3259 73.1423 37.2436 73.1423H35.1029V79.839C35.1029 79.9214 35.048 79.9763 34.9656 79.9763H34.0874C34.0325 79.9488 33.9776 79.9214 33.9776 79.839Z" fill="#2ED9C3"/>
<path d="M38.2042 80.086C38.0944 80.0586 38.0395 80.0586 38.0121 80.0586C37.9846 80.0586 37.9572 80.0311 37.9297 80.0037C37.9023 79.9762 37.9023 79.9488 37.9023 79.9213V79.2078C37.9023 79.1803 37.9023 79.1529 37.9297 79.1254C37.9572 79.098 37.9846 79.098 38.0121 79.098C38.0395 79.098 38.1218 79.098 38.2042 79.1254C38.2865 79.1254 38.3414 79.1529 38.3963 79.1529C38.6159 79.1529 38.7805 79.0431 38.9178 78.8235C39.055 78.6039 39.1373 78.2746 39.1648 77.808L39.4941 72.264C39.4941 72.1817 39.5216 72.1268 39.6039 72.1268H44.2971C44.3794 72.1268 44.4069 72.1817 44.4069 72.264V79.839C44.4069 79.9213 44.352 79.9762 44.2696 79.9762H43.3914C43.3639 79.9762 43.3091 79.9762 43.3091 79.9488C43.2816 79.9213 43.2816 79.8939 43.2816 79.8664V73.0874H40.5371L40.2626 77.7531C40.2077 78.5765 40.043 79.1803 39.7686 79.5645C39.4941 79.9488 39.055 80.1409 38.4786 80.1409C38.3963 80.1135 38.2865 80.086 38.2042 80.086Z" fill="#2ED9C3"/>
<path d="M47.4258 79.3725C46.9318 78.8784 46.6573 78.1649 46.6573 77.2592V74.8165C46.6573 73.9108 46.9044 73.1972 47.4258 72.7032C47.9198 72.2092 48.6883 71.9622 49.6764 71.9622C50.6918 71.9622 51.4329 72.2092 51.9543 72.7032C52.4484 73.1972 52.7228 73.9108 52.7228 74.8165V77.2592C52.7228 78.1649 52.4758 78.8784 51.9543 79.3725C51.4329 79.8665 50.6918 80.1135 49.6764 80.1135C48.6883 80.1135 47.9473 79.8665 47.4258 79.3725ZM51.1035 78.604C51.4329 78.2746 51.5975 77.8081 51.5975 77.2043V74.8439C51.5975 74.2401 51.4329 73.7736 51.1035 73.4442C50.7742 73.1149 50.3076 72.9776 49.7038 72.9776C49.1 72.9776 48.6334 73.1423 48.3041 73.4442C47.9747 73.7736 47.8375 74.2401 47.8375 74.8439V77.2043C47.8375 77.8081 48.0022 78.2746 48.3041 78.604C48.6334 78.9333 49.1 79.0706 49.7038 79.0706C50.3076 79.098 50.7742 78.9333 51.1035 78.604Z" fill="#2ED9C3"/>
<path d="M55.0283 79.839V72.264C55.0283 72.1817 55.0557 72.1268 55.138 72.1268H57.3337C59.1725 72.1268 60.0782 72.7855 60.0782 74.0754C60.0782 74.5146 59.9685 74.8714 59.7763 75.1458C59.5568 75.4203 59.2274 75.6398 58.7608 75.8045V75.8319C59.8587 76.0241 60.4076 76.6828 60.4076 77.808C60.4076 78.5491 60.1606 79.098 59.6666 79.4548C59.1725 79.8116 58.4041 79.9762 57.3337 79.9762H55.1106C55.0557 79.9488 55.0283 79.9213 55.0283 79.839ZM57.3062 75.4477C57.8826 75.4477 58.2943 75.3379 58.5687 75.1458C58.8432 74.9537 58.9804 74.6518 58.9804 74.2401C58.9804 73.8284 58.8432 73.5265 58.5687 73.3344C58.2943 73.1423 57.8552 73.0599 57.1965 73.0599H56.1535V75.4203H57.3062V75.4477ZM57.3611 78.9882C58.0473 78.9882 58.5413 78.8784 58.8432 78.6863C59.1451 78.4942 59.2823 78.1648 59.2823 77.6982C59.2823 77.2317 59.1176 76.8749 58.8157 76.6553C58.5138 76.4357 58.0198 76.326 57.3611 76.326H56.1261V78.9607H57.3611V78.9882Z" fill="#2ED9C3"/>
<path d="M62.4386 79.839V72.2641C62.4386 72.1817 62.4661 72.1268 62.5484 72.1268H63.3992C63.4266 72.1268 63.4815 72.1268 63.509 72.1543C63.5364 72.1817 63.5364 72.2092 63.5364 72.2366V75.8045C63.5364 76.4358 63.509 77.1494 63.4815 77.9727C63.4541 78.1923 63.4541 78.3295 63.4541 78.4119H63.4815C63.8932 77.6434 64.3598 76.7651 64.9361 75.8045L67.1043 72.1817C67.1318 72.1268 67.1867 72.0994 67.2416 72.0994H68.2296C68.2571 72.0994 68.3119 72.0994 68.3119 72.1268C68.3394 72.1543 68.3394 72.1817 68.3394 72.2092V79.839C68.3394 79.8665 68.3394 79.9214 68.3119 79.9214C68.2845 79.9488 68.2571 79.9488 68.2296 79.9488H67.3788C67.3513 79.9488 67.2965 79.9488 67.269 79.9214C67.2416 79.8939 67.2416 79.8665 67.2416 79.839V76.4083C67.2416 75.338 67.269 74.4323 67.3239 73.6638H67.2965C66.9122 74.3774 66.3908 75.3105 65.7321 76.4083L63.6462 79.8939C63.6188 79.9488 63.5639 79.9763 63.509 79.9763H62.5209C62.466 79.9488 62.4386 79.9214 62.4386 79.839Z" fill="#2ED9C3"/>
<path d="M70.8094 79.839V72.2641C70.8094 72.1817 70.8368 72.1268 70.9192 72.1268H71.77C71.7974 72.1268 71.8523 72.1268 71.8798 72.1543C71.9072 72.1817 71.9072 72.2092 71.9072 72.2366V75.8045C71.9072 76.4358 71.8798 77.1494 71.8523 77.9727C71.8249 78.1923 71.8249 78.3295 71.8249 78.4119H71.8523C72.264 77.6434 72.7306 76.7651 73.3069 75.8045L75.4751 72.1817C75.5026 72.1268 75.5575 72.0994 75.6124 72.0994H76.6004C76.6278 72.0994 76.6827 72.0994 76.6827 72.1268C76.7102 72.1543 76.7102 72.1817 76.7102 72.2092V79.839C76.7102 79.8665 76.7102 79.9214 76.6827 79.9214C76.6553 79.9488 76.6278 79.9488 76.6004 79.9488H75.7496C75.7221 79.9488 75.6672 79.9488 75.6398 79.9214C75.6124 79.8939 75.6124 79.8665 75.6124 79.839V76.4083C75.6124 75.338 75.6398 74.4323 75.6947 73.6638H75.6672C75.283 74.3774 74.7615 75.3105 74.1029 76.4083L72.017 79.8939C71.9896 79.9488 71.9347 79.9763 71.8798 79.9763H70.8917C70.8643 79.9488 70.8094 79.9214 70.8094 79.839ZM72.8678 71.2211C72.5659 71.1114 72.3463 71.0016 72.2091 70.8918C72.1542 70.8643 72.1268 70.8095 72.1268 70.7546V70.0684C72.1268 69.9586 72.1817 69.9312 72.264 69.9861C72.8404 70.3429 73.3618 70.5076 73.7735 70.5076C74.048 70.5076 74.295 70.4527 74.542 70.3703C74.789 70.2605 75.036 70.1508 75.3105 69.9861C75.3379 69.9587 75.3379 69.9586 75.3928 69.9586C75.4202 69.9586 75.4477 69.9861 75.4477 70.0684V70.7546C75.4477 70.8095 75.4202 70.8643 75.3928 70.8918C75.2556 71.0016 75.036 71.1114 74.7341 71.2211C74.4322 71.3309 74.1303 71.3858 73.801 71.3858C73.4716 71.3858 73.1423 71.3309 72.8678 71.2211Z" fill="#2ED9C3"/>
<path d="M82.1719 79.839V72.264C82.1719 72.1817 82.1993 72.1268 82.2817 72.1268H83.1874C83.2697 72.1268 83.2971 72.1817 83.2971 72.264V75.5026H84.2577L86.7278 72.2091C86.7553 72.1543 86.8102 72.1268 86.8925 72.1268H87.908C87.9629 72.1268 87.9903 72.1542 88.0178 72.1817C88.0178 72.2091 88.0178 72.2366 87.9903 72.2915L85.3007 75.8868L88.2373 79.839C88.2648 79.8664 88.2648 79.8664 88.2648 79.9213C88.2648 79.9762 88.2373 80.0037 88.1824 80.0037H87.0572C87.0023 80.0037 86.9474 79.9762 86.8925 79.9213L84.3401 76.5181H83.352V79.839C83.352 79.9213 83.3246 79.9762 83.2422 79.9762H82.3365C82.2268 79.9488 82.1719 79.9213 82.1719 79.839Z" fill="#2ED9C3"/>
<path d="M90.0488 79.3725C89.5548 78.8784 89.2803 78.1649 89.2803 77.2592V74.8165C89.2803 73.9108 89.5273 73.1972 90.0488 72.7032C90.5428 72.2092 91.3113 71.9622 92.2993 71.9622C93.3148 71.9622 94.0559 72.2092 94.5773 72.7032C95.0713 73.1972 95.3458 73.9108 95.3458 74.8165V77.2592C95.3458 78.1649 95.0988 78.8784 94.5773 79.3725C94.0559 79.8665 93.3148 80.1135 92.2993 80.1135C91.3113 80.1135 90.5428 79.8665 90.0488 79.3725ZM93.7265 78.604C94.0559 78.2746 94.2205 77.8081 94.2205 77.2043V74.8439C94.2205 74.2401 94.0559 73.7736 93.7265 73.4442C93.3972 73.1149 92.9306 72.9776 92.3268 72.9776C91.723 72.9776 91.2564 73.1423 90.9271 73.4442C90.5977 73.7736 90.4605 74.2401 90.4605 74.8439V77.2043C90.4605 77.8081 90.6252 78.2746 90.9271 78.604C91.2564 78.9333 91.723 79.0706 92.3268 79.0706C92.9306 79.098 93.3972 78.9333 93.7265 78.604Z" fill="#2ED9C3"/>
<path d="M97.459 79.839L97.6237 72.264C97.6237 72.1817 97.6512 72.1268 97.7335 72.1268H99.0783C99.1332 72.1268 99.1881 72.1543 99.2156 72.2091L101.274 76.82L103.305 72.2091C103.332 72.1543 103.387 72.1268 103.442 72.1268H104.787C104.869 72.1268 104.897 72.1817 104.897 72.264L105.061 79.839C105.061 79.9213 105.034 79.9762 104.952 79.9762H104.073C103.991 79.9762 103.964 79.9213 103.964 79.839L103.854 75.3105C103.854 74.8165 103.854 74.2127 103.909 73.4991H103.881C103.662 74.0754 103.387 74.6518 103.113 75.283L101.439 78.9058C101.411 78.9607 101.356 78.9882 101.301 78.9882H101.274C101.219 78.9882 101.164 78.9607 101.137 78.9058L99.4351 75.2282C99.2705 74.8714 99.0234 74.295 98.6941 73.4991H98.6666C98.6941 73.9382 98.6941 74.3773 98.6941 74.8165V75.2556L98.5843 79.8115C98.5843 79.8939 98.5569 79.9488 98.4745 79.9488H97.5963C97.5139 79.9488 97.459 79.9213 97.459 79.839Z" fill="#2ED9C3"/>
<path d="M107.394 79.839V72.264C107.394 72.1817 107.422 72.1268 107.504 72.1268H113.24C113.323 72.1268 113.35 72.1817 113.35 72.264V79.839C113.35 79.9213 113.323 79.9762 113.24 79.9762H112.335C112.252 79.9762 112.225 79.9213 112.225 79.839V73.1423H108.52V79.839C108.52 79.9213 108.492 79.9762 108.41 79.9762H107.504C107.449 79.9488 107.394 79.9213 107.394 79.839Z" fill="#2ED9C3"/>
<path d="M115.299 80.086C115.189 80.0586 115.134 80.0586 115.106 80.0586C115.079 80.0586 115.052 80.0311 115.024 80.0037C114.997 79.9762 114.997 79.9488 114.997 79.9213V79.2078C114.997 79.1803 114.997 79.1529 115.024 79.1254C115.052 79.098 115.079 79.098 115.106 79.098C115.134 79.098 115.216 79.098 115.299 79.1254C115.381 79.1254 115.436 79.1529 115.491 79.1529C115.71 79.1529 115.875 79.0431 116.012 78.8235C116.149 78.6039 116.232 78.2746 116.259 77.808L116.589 72.264C116.589 72.1817 116.616 72.1268 116.698 72.1268H121.392C121.474 72.1268 121.501 72.1817 121.501 72.264V79.839C121.501 79.9213 121.446 79.9762 121.364 79.9762H120.486C120.458 79.9762 120.403 79.9762 120.403 79.9488C120.376 79.9213 120.376 79.8939 120.376 79.8664V73.0874H117.686L117.412 77.7531C117.357 78.5765 117.192 79.1803 116.918 79.5645C116.643 79.9488 116.204 80.1409 115.628 80.1409C115.491 80.1135 115.408 80.086 115.299 80.086Z" fill="#2ED9C3"/>
<path d="M123.917 79.839V72.264C123.917 72.1817 123.944 72.1268 124.026 72.1268H128.39C128.473 72.1268 128.5 72.1817 128.5 72.264V73.0325C128.5 73.1148 128.473 73.1697 128.39 73.1697H125.069V75.5026H128.116C128.143 75.5026 128.171 75.5026 128.198 75.53C128.226 75.5575 128.226 75.5849 128.226 75.6124V76.3534C128.226 76.3809 128.226 76.4358 128.198 76.4632C128.171 76.4906 128.143 76.4906 128.116 76.4906H125.069V78.9607H128.418C128.5 78.9607 128.527 79.0156 128.527 79.098V79.8664C128.527 79.9488 128.5 80.0037 128.418 80.0037H124.054C123.971 79.9488 123.917 79.9213 123.917 79.839Z" fill="#2ED9C3"/>
<path d="M130.805 79.839V72.264C130.805 72.1817 130.833 72.1268 130.915 72.1268H131.821C131.903 72.1268 131.931 72.1817 131.931 72.264V75.5026H132.891L135.361 72.2091C135.389 72.1543 135.444 72.1268 135.526 72.1268H136.542C136.596 72.1268 136.624 72.1542 136.651 72.1817C136.651 72.2091 136.651 72.2366 136.624 72.2915L133.934 75.8868L136.871 79.839C136.898 79.8664 136.898 79.8664 136.898 79.9213C136.898 79.9762 136.871 80.0037 136.816 80.0037H135.691C135.636 80.0037 135.581 79.9762 135.526 79.9213L132.974 76.5181H131.986V79.839C131.986 79.9213 131.958 79.9762 131.876 79.9762H130.97C130.86 79.9488 130.805 79.9213 130.805 79.839Z" fill="#2ED9C3"/>
<path d="M138.682 79.3725C138.161 78.8784 137.914 78.1649 137.914 77.2317V74.8165C137.914 73.8834 138.161 73.1698 138.682 72.6757C139.204 72.1817 139.945 71.9347 140.933 71.9347C141.509 71.9347 142.031 72.0171 142.497 72.2092C142.936 72.4013 143.293 72.6483 143.568 73.0051C143.815 73.3619 143.952 73.7736 143.952 74.2401C143.952 74.4048 143.952 74.542 143.924 74.6244C143.897 74.7342 143.869 74.7891 143.787 74.7891H142.881C142.799 74.7891 142.772 74.7342 142.772 74.6518C142.799 74.1029 142.662 73.6638 142.332 73.3893C142.031 73.0874 141.564 72.9502 140.96 72.9502C140.356 72.9502 139.862 73.1149 139.56 73.4168C139.231 73.7461 139.066 74.1853 139.066 74.7891V77.2043C139.066 77.8081 139.231 78.2746 139.56 78.5765C139.89 78.8784 140.356 79.0431 140.96 79.0431C141.537 79.0431 141.976 78.9059 142.305 78.6589C142.634 78.3844 142.772 78.0276 142.772 77.5611C142.772 77.4513 142.772 77.3964 142.772 77.3415C142.772 77.2592 142.799 77.2043 142.881 77.2043H143.76C143.815 77.2043 143.842 77.2317 143.869 77.2592C143.897 77.2866 143.897 77.3415 143.924 77.3964C143.924 77.4513 143.924 77.5336 143.924 77.6434C143.924 78.1374 143.787 78.5491 143.54 78.9333C143.293 79.2901 142.936 79.592 142.497 79.7841C142.058 79.9763 141.509 80.086 140.933 80.086C139.945 80.1135 139.204 79.8665 138.682 79.3725Z" fill="#2ED9C3"/>
<path d="M111.347 65.3752V59.5568C111.347 56.4829 112.033 53.7658 113.378 51.378C114.722 49.0177 116.342 47.0142 118.181 45.3949C120.047 43.7756 122.517 41.8818 125.591 39.7411C128.061 38.012 129.982 36.6123 131.3 35.5419C132.617 34.4716 133.742 33.2091 134.648 31.7819C135.554 30.3547 136.02 28.8178 136.02 27.1436V25.6067C136.02 21.4075 133.221 19.2942 127.622 19.2942C122.188 19.2942 119.47 21.7643 119.47 26.7319V26.8966C119.47 27.3906 119.223 27.6376 118.729 27.6376H112.746C112.143 27.6376 111.868 27.2808 111.868 26.5947C111.868 22.0113 113.24 18.4983 115.985 16.0831C118.729 13.6678 122.819 12.4328 128.281 12.4328C138.737 12.4328 143.952 16.9064 143.952 25.8537C143.952 29.0373 143.321 31.7819 142.086 34.0599C140.851 36.3379 139.368 38.259 137.639 39.7685C135.91 41.278 133.605 43.0071 130.696 44.9557C128.226 46.575 126.25 47.9748 124.795 49.1549C123.34 50.3351 122.133 51.7622 121.145 53.4364C120.184 55.1106 119.69 57.0592 119.69 59.2549H142.799C143.074 59.2549 143.293 59.3372 143.458 59.5019C143.623 59.6665 143.705 59.8861 143.705 60.1606V65.4027C143.705 65.6771 143.623 65.8967 143.458 66.0614C143.293 66.226 143.074 66.3084 142.799 66.3084H112.252C111.649 66.2809 111.347 65.979 111.347 65.3752Z" fill="#2ED9C3"/>
<path d="M14.1619 35.2675C13.0092 34.0873 12.4054 32.1662 12.4054 29.5039V19.6784C12.4054 17.0437 12.9818 15.1225 14.107 13.9149C15.2323 12.7347 17.0437 12.1309 19.4863 12.1309C21.7369 12.1309 23.4934 12.6249 24.7284 13.6404C25.9909 14.6559 26.5947 16.0556 26.5947 17.867C26.5947 18.1964 26.5947 18.4434 26.5673 18.6081C26.5124 18.8276 26.4575 18.9923 26.4301 19.0472C26.3752 19.1295 26.2928 19.157 26.2105 19.157H23.3562C23.1366 19.157 23.0268 18.9649 23.0543 18.5532C23.0817 17.4279 22.8073 16.6045 22.2309 16.0831C21.6545 15.5616 20.7763 15.2872 19.5687 15.2872C18.2238 15.2872 17.2907 15.5891 16.7418 16.1654C16.1929 16.7692 15.9184 17.8121 15.9184 19.2942V22.7798H22.0662C22.2858 22.7798 22.3956 22.917 22.3956 23.1915V25.5792C22.3956 25.8537 22.2858 25.9909 22.0662 25.9909H15.9184V29.7784C15.9184 31.2605 16.1929 32.3034 16.7692 32.9072C17.3456 33.511 18.2787 33.8129 19.6236 33.8129C20.8312 33.8129 21.7369 33.5384 22.2858 33.017C22.8621 32.4955 23.1366 31.6996 23.1366 30.6292C23.1366 30.3822 23.164 30.2175 23.2189 30.1352C23.2738 30.0528 23.3562 29.998 23.5208 29.998H26.2928C26.5398 29.998 26.6771 30.1901 26.6771 30.6018C26.7594 34.8833 24.4265 37.024 19.7059 37.024C17.1809 37.0515 15.3421 36.4477 14.1619 35.2675Z" fill="white"/>
<path d="M31.4801 36.3379V12.8445C31.4801 12.57 31.5899 12.4328 31.8643 12.4328H37.1064C39.5216 12.4328 41.333 12.9268 42.5132 13.9149C43.6934 14.9029 44.2972 16.4124 44.2972 18.4434C44.2972 19.7608 44.0502 20.8311 43.5287 21.7094C43.0072 22.5876 42.2113 23.2738 41.1135 23.8227V23.905C43.7483 24.6186 45.0931 26.6221 45.0931 29.8882C45.0931 32.1936 44.4618 33.9226 43.2268 35.0479C41.9643 36.1732 40.0431 36.7495 37.4632 36.7495H31.8918C31.5899 36.7495 31.4801 36.6123 31.4801 36.3379ZM37.1613 22.7249C38.3689 22.7249 39.2746 22.423 39.8784 21.8192C40.4822 21.2154 40.7567 20.2822 40.7567 19.0197C40.7567 17.7847 40.4548 16.9064 39.8784 16.3575C39.3021 15.836 38.3415 15.5616 36.9967 15.5616H34.9931V22.7249H37.1613ZM37.4083 33.6208C38.8355 33.6208 39.9059 33.2914 40.5646 32.6602C41.2233 32.0289 41.5801 31.0134 41.5801 29.6137C41.5801 28.2414 41.2507 27.2534 40.5646 26.5947C39.9059 25.9634 38.8629 25.6341 37.4358 25.6341H34.9931V33.6208H37.4083Z" fill="white"/>
<path d="M49.2922 36.3379V12.8445C49.2922 12.57 49.402 12.4328 49.6216 12.4328H54.699C57.2514 12.4328 59.1177 13.064 60.3528 14.354C61.5604 15.6165 62.1642 17.5651 62.1642 20.1724C62.1642 22.67 61.5329 24.5637 60.2979 25.8811C59.0354 27.1985 57.224 27.8572 54.8362 27.8572H52.8327V36.3653C52.8327 36.6398 52.6955 36.777 52.4485 36.777H49.6216C49.402 36.7495 49.2922 36.6123 49.2922 36.3379ZM54.6716 24.6461C56.0438 24.6461 57.0319 24.2893 57.6906 23.5757C58.3218 22.8621 58.6512 21.7368 58.6512 20.2273C58.6512 18.5806 58.3493 17.4004 57.718 16.6869C57.0868 15.9458 56.0987 15.589 54.7539 15.589H52.8327V24.6461H54.6716Z" fill="white"/>
<path d="M36.0635 66.1712C36.0086 66.0888 35.9812 66.0065 35.9812 65.8693V42.3759C35.9812 42.1014 36.091 41.9642 36.3106 41.9642H39.1374C39.3844 41.9642 39.5217 42.1014 39.5217 42.3759V65.8693C39.5217 66.1437 39.3844 66.2809 39.1374 66.2809H36.3106C36.2008 66.2809 36.1459 66.2261 36.0635 66.1712Z" fill="white"/>
<path d="M97.267 15.5342C99.298 15.5342 100.945 17.1809 100.945 19.2119V29.9705C100.945 32.0015 99.298 33.6482 97.267 33.6482H73.1973C71.1663 33.6482 69.5196 32.0015 69.5196 29.9705V19.2119C69.5196 17.1809 71.1663 15.5342 73.1973 15.5342H97.267ZM97.267 12.1584H73.1973C69.3 12.1584 66.1438 15.3146 66.1438 19.2119V29.9705C66.1438 33.8678 69.3 37.024 73.1973 37.024H97.2945C101.192 37.024 104.348 33.8678 104.348 29.9705V19.2119C104.321 15.3146 101.164 12.1584 97.267 12.1584Z" fill="white"/>
<path d="M66.0614 58.9804V60.7918C66.0614 62.1092 64.991 63.1796 63.6737 63.1796H50.143C48.8256 63.1796 47.7553 62.1092 47.7553 60.7918V47.4533C47.7553 46.1359 48.8256 45.0655 50.143 45.0655H63.7011C65.0185 45.0655 66.0889 46.1359 66.0889 47.4533V49.2647H69.4647V47.4533C69.4647 44.2696 66.8848 41.6897 63.7011 41.6897H50.143C46.9593 41.6897 44.3795 44.2696 44.3795 47.4533V60.7918C44.3795 63.9755 46.9593 66.5554 50.143 66.5554H63.7011C66.8848 66.5554 69.4647 63.9755 69.4647 60.7918V58.9804H66.0614Z" fill="white"/>
<path d="M77.7808 65.8693V45.2028H72.9504C72.7034 45.2028 72.5662 45.0655 72.5662 44.7911V42.3759C72.5662 42.1014 72.6759 41.9642 72.9504 41.9642H86.1243C86.3713 41.9642 86.5085 42.1014 86.5085 42.3759V44.7911C86.5085 45.0655 86.3713 45.2028 86.1243 45.2028H81.2938V65.8693C81.2938 66.1437 81.1841 66.2809 80.9645 66.2809H78.1376C77.918 66.2809 77.7808 66.1437 77.7808 65.8693Z" fill="white"/>
<path d="M91.1742 64.5793C89.9117 63.2345 89.253 61.2858 89.253 58.6785V49.6215C89.253 46.9867 89.8842 45.0106 91.1742 43.6932C92.4367 42.3484 94.3304 41.6897 96.8005 41.6897C99.2706 41.6897 101.137 42.3484 102.427 43.6932C103.689 45.0381 104.348 47.0142 104.348 49.6215V58.6785C104.348 61.2858 103.717 63.2345 102.427 64.5793C101.164 65.9241 99.2706 66.5828 96.8005 66.5828C94.3304 66.5828 92.4367 65.8967 91.1742 64.5793ZM100.808 58.5138V49.7587C100.808 46.5201 99.4627 44.9009 96.8005 44.9009C94.1383 44.9009 92.7935 46.5201 92.7935 49.7587V58.5138C92.7935 61.725 94.1383 63.3442 96.8005 63.3442C99.4627 63.3442 100.808 61.725 100.808 58.5138Z" fill="white"/>
<path d="M12.5153 66.1712C12.4604 66.0888 12.433 66.0065 12.433 65.8693V42.3759C12.433 42.1014 12.5428 41.9642 12.7623 41.9642H16.7694C17.0164 41.9642 17.1536 42.074 17.1811 42.2661L21.5723 55.8516L25.9087 42.2661C25.9911 42.074 26.1283 41.9642 26.3479 41.9642H30.3549C30.5745 41.9642 30.6843 42.1014 30.6843 42.3759V65.8693C30.6843 66.1437 30.5745 66.2809 30.3549 66.2809H27.6104C27.3633 66.2809 27.2261 66.1437 27.2261 65.8693L27.4182 52.3661V50.9938C27.4182 49.5666 27.4457 48.2218 27.528 46.9593H27.4457C26.9791 48.606 26.4302 50.2802 25.7715 51.9818L21.984 63.0424C21.9566 63.207 21.8468 63.2894 21.5998 63.2894H21.4077C21.243 63.2894 21.1058 63.207 21.0234 63.0424L17.2085 51.8995C16.7145 50.5547 16.193 48.9079 15.6167 46.9593H15.5343C15.6167 48.2218 15.6441 49.5666 15.6441 50.9938V52.3386L15.8637 65.8967C15.8637 66.1712 15.7264 66.3084 15.4794 66.3084H12.7623C12.6525 66.2809 12.5977 66.226 12.5153 66.1712Z" fill="white"/>
</svg>
