<svg width="101" height="121" viewBox="0 0 101 121" fill="none" xmlns="http://www.w3.org/2000/svg">
<g clip-path="url(#clip0)">
<path d="M8.36851 119.492V120.459C8.36851 120.564 8.32653 120.666 8.2518 120.74C8.17706 120.815 8.0757 120.857 7.97001 120.857H0.398501C0.292812 120.857 0.191452 120.815 0.116718 120.74C0.0419848 120.666 0 120.564 0 120.459V110.075C0 109.97 0.0419848 109.869 0.116718 109.794C0.191452 109.719 0.292812 109.677 0.398501 109.677H7.77076C7.87645 109.677 7.97781 109.719 8.05255 109.794C8.12728 109.869 8.16926 109.97 8.16926 110.075V111.03C8.16926 111.136 8.12728 111.237 8.05255 111.311C7.97781 111.386 7.87645 111.428 7.77076 111.428H2.4707C2.36502 111.428 2.26365 111.47 2.18892 111.544C2.11419 111.619 2.0722 111.72 2.0722 111.826V113.934C2.0722 114.04 2.11419 114.141 2.18892 114.216C2.26365 114.29 2.36502 114.332 2.4707 114.332H7.09331C7.199 114.332 7.30036 114.374 7.37509 114.449C7.44983 114.523 7.49181 114.624 7.49181 114.73V115.645C7.49181 115.751 7.44983 115.852 7.37509 115.926C7.30036 116.001 7.199 116.043 7.09331 116.043H2.4707C2.36502 116.043 2.26365 116.085 2.18892 116.159C2.11419 116.234 2.0722 116.335 2.0722 116.441V118.748C2.0722 118.854 2.11419 118.955 2.18892 119.03C2.26365 119.104 2.36502 119.146 2.4707 119.146H8.00986C8.20911 119.106 8.36851 119.265 8.36851 119.504V119.492ZM19.6421 115.991C20.0144 116.483 20.2109 117.085 20.2 117.702C20.2248 118.14 20.1394 118.576 19.9514 118.973C19.7634 119.369 19.479 119.712 19.124 119.97C18.4067 120.487 17.3706 120.765 15.9759 120.765H11.0743C10.9686 120.765 10.8673 120.723 10.7926 120.649C10.7178 120.574 10.6758 120.473 10.6758 120.367V109.984C10.6758 109.878 10.7178 109.777 10.7926 109.702C10.8673 109.628 10.9686 109.586 11.0743 109.586H15.6969C16.9323 109.586 17.9285 109.825 18.6458 110.342C18.986 110.574 19.2601 110.891 19.4416 111.26C19.6232 111.63 19.7059 112.04 19.6819 112.45C19.6891 112.987 19.5366 113.513 19.2436 113.962C19.09 114.189 18.9018 114.39 18.6857 114.559C18.63 114.598 18.5851 114.65 18.5555 114.712C18.5259 114.773 18.5124 114.84 18.5164 114.908C18.5204 114.976 18.5417 115.042 18.5783 115.099C18.6149 115.156 18.6656 115.203 18.7255 115.235C19.0785 115.424 19.3901 115.681 19.6421 115.991ZM12.748 114.042C12.748 114.147 12.79 114.248 12.8648 114.323C12.9395 114.398 13.0408 114.44 13.1465 114.44H15.5375C16.0734 114.488 16.6094 114.347 17.0518 114.042C17.2154 113.889 17.3459 113.704 17.435 113.499C17.5242 113.293 17.5702 113.072 17.5702 112.848C17.5702 112.624 17.5242 112.403 17.435 112.198C17.3459 111.992 17.2154 111.808 17.0518 111.655C16.6045 111.36 16.0724 111.22 15.5375 111.257H13.1465C13.0408 111.257 12.9395 111.299 12.8648 111.373C12.79 111.448 12.748 111.549 12.748 111.655V114.042ZM18.1278 117.583C18.1278 116.508 17.4105 115.951 15.936 115.951H13.1465C13.0408 115.951 12.9395 115.993 12.8648 116.068C12.79 116.143 12.748 116.244 12.748 116.349V118.868C12.748 118.973 12.79 119.074 12.8648 119.149C12.9395 119.223 13.0408 119.265 13.1465 119.265H15.936C17.4105 119.226 18.1278 118.708 18.1278 117.594V117.583ZM29.7281 110.143C30.4012 110.412 30.9726 110.885 31.362 111.496C31.7548 112.127 31.9491 112.861 31.9199 113.604C31.9299 114.345 31.737 115.074 31.362 115.713C30.9652 116.326 30.3973 116.81 29.7281 117.105C28.9342 117.439 28.0787 117.601 27.2176 117.583H25.1055C24.9999 117.583 24.8985 117.624 24.8238 117.699C24.749 117.774 24.707 117.875 24.707 117.98V120.407C24.707 120.513 24.6651 120.614 24.5903 120.689C24.5156 120.763 24.4142 120.805 24.3085 120.805H23.0333C22.9276 120.805 22.8263 120.763 22.7516 120.689C22.6768 120.614 22.6348 120.513 22.6348 120.407V110.024C22.6348 109.918 22.6768 109.817 22.7516 109.742C22.8263 109.668 22.9276 109.626 23.0333 109.626H27.2574C28.1056 109.647 28.9428 109.822 29.7281 110.143ZM29.1264 115.287C29.3647 115.089 29.5537 114.839 29.6782 114.556C29.8027 114.273 29.8594 113.965 29.8437 113.656C29.8646 113.346 29.8103 113.036 29.6854 112.752C29.5605 112.468 29.3687 112.219 29.1264 112.025C28.6482 111.627 27.9708 111.468 27.0542 111.468H25.0219C24.9162 111.468 24.8148 111.51 24.7401 111.584C24.6653 111.659 24.6234 111.76 24.6234 111.866V115.526C24.6234 115.631 24.6653 115.732 24.7401 115.807C24.8148 115.882 24.9162 115.924 25.0219 115.924H27.0542C27.9708 115.872 28.6881 115.685 29.1264 115.287ZM36.136 120.26C35.2376 119.787 34.4916 119.07 33.9841 118.191C33.4622 117.298 33.1871 116.282 33.1871 115.247C33.1871 114.213 33.4622 113.197 33.9841 112.303C34.503 111.434 35.2462 110.719 36.136 110.234C37.0824 109.738 38.1354 109.478 39.2045 109.478C40.2764 109.454 41.3354 109.715 42.2729 110.234C43.1602 110.705 43.9036 111.406 44.4249 112.263C44.9468 113.157 45.2219 114.173 45.2219 115.207C45.2219 116.242 44.9468 117.258 44.4249 118.151C43.9156 119.019 43.1691 119.722 42.2729 120.18C41.3266 120.677 40.2736 120.936 39.2045 120.936C38.1401 120.982 37.0821 120.749 36.136 120.26ZM41.2368 118.669C41.8307 118.354 42.3165 117.869 42.6316 117.276C42.9717 116.654 43.1499 115.956 43.1499 115.247C43.1499 114.538 42.9717 113.841 42.6316 113.218C42.3052 112.634 41.8222 112.152 41.2368 111.826C40.6254 111.492 39.941 111.315 39.2443 111.309C38.5441 111.285 37.852 111.465 37.2518 111.826C36.658 112.14 36.1722 112.625 35.8571 113.218C35.517 113.841 35.3388 114.538 35.3388 115.247C35.3388 115.956 35.517 116.654 35.8571 117.276C36.1835 117.861 36.6665 118.343 37.2518 118.669C37.8633 119.002 38.5477 119.18 39.2443 119.186C39.9445 119.195 40.6339 119.012 41.2368 118.657V118.669ZM57.8105 120.459V114.849C57.8029 114.769 57.7711 114.693 57.7193 114.631C57.6675 114.57 57.5982 114.525 57.5204 114.503C57.4427 114.482 57.3602 114.484 57.2839 114.511C57.2076 114.537 57.1411 114.586 57.0932 114.65L54.2638 119.385C54.2312 119.442 54.185 119.489 54.1294 119.524C54.0738 119.559 54.0105 119.579 53.945 119.584H53.4668C53.401 119.583 53.3368 119.564 53.2812 119.529C53.2256 119.494 53.1808 119.444 53.152 119.385L50.3227 114.73C50.2747 114.665 50.2082 114.616 50.1319 114.59C50.0557 114.564 49.9732 114.561 49.8954 114.583C49.8177 114.605 49.7483 114.649 49.6965 114.711C49.6447 114.773 49.6129 114.849 49.6054 114.929V120.459C49.6054 120.564 49.5634 120.666 49.4886 120.74C49.4139 120.815 49.3125 120.857 49.2069 120.857H48.0114C47.9057 120.857 47.8043 120.815 47.7296 120.74C47.6548 120.666 47.6129 120.564 47.6129 120.459V110.075C47.6129 109.97 47.6548 109.869 47.7296 109.794C47.8043 109.719 47.9057 109.677 48.0114 109.677H49.0873C49.1538 109.677 49.2189 109.696 49.2753 109.731C49.3316 109.766 49.377 109.817 49.4061 109.876L53.3911 116.481C53.4269 116.538 53.4767 116.586 53.536 116.619C53.5953 116.651 53.662 116.669 53.7298 116.669C53.7977 116.669 53.8644 116.651 53.9237 116.619C53.983 116.586 54.0328 116.538 54.0686 116.481L57.9739 109.876C58.0065 109.82 58.0527 109.772 58.1083 109.737C58.1639 109.702 58.2272 109.682 58.2927 109.677H59.3686C59.4743 109.677 59.5757 109.719 59.6504 109.794C59.7251 109.869 59.7671 109.97 59.7671 110.075L59.807 120.459C59.807 120.564 59.765 120.666 59.6903 120.74C59.6155 120.815 59.5142 120.857 59.4085 120.857H58.213C58.1087 120.851 58.0102 120.808 57.936 120.734C57.8618 120.661 57.8172 120.563 57.8105 120.459ZM63.3098 109.677H64.585C64.6907 109.677 64.7921 109.719 64.8668 109.794C64.9415 109.869 64.9835 109.97 64.9835 110.075V120.459C64.9835 120.564 64.9415 120.666 64.8668 120.74C64.7921 120.815 64.6907 120.857 64.585 120.857H63.3098C63.2041 120.857 63.1028 120.815 63.028 120.74C62.9533 120.666 62.9113 120.564 62.9113 120.459V110.075C62.9159 109.97 62.959 109.87 63.0325 109.795C63.1059 109.719 63.2046 109.673 63.3098 109.665V109.677ZM70.164 120.26C69.2768 119.789 68.5333 119.088 68.0121 118.231C67.5082 117.33 67.247 116.314 67.254 115.282C67.261 114.25 67.5359 113.237 68.052 112.343C68.5612 111.476 69.3077 110.772 70.2039 110.314C71.1485 109.813 72.2027 109.553 73.2723 109.558C74.1315 109.547 74.9841 109.709 75.7789 110.035C76.3803 110.299 76.9328 110.662 77.4127 111.11C77.4858 111.184 77.5267 111.284 77.5267 111.388C77.5267 111.492 77.4858 111.592 77.4127 111.667L76.6157 112.383C76.5465 112.45 76.4535 112.488 76.3567 112.488C76.2599 112.488 76.1669 112.45 76.0977 112.383C75.7313 112.038 75.2999 111.769 74.8286 111.591C74.3573 111.413 73.8554 111.331 73.352 111.348C72.6277 111.335 71.9127 111.514 71.2798 111.866C70.6828 112.19 70.1865 112.671 69.8452 113.258C69.5051 113.88 69.3269 114.578 69.3269 115.287C69.3269 115.996 69.5051 116.694 69.8452 117.316C70.1756 117.911 70.6747 118.396 71.2798 118.708C71.9162 119.052 72.6288 119.229 73.352 119.226C73.852 119.236 74.3489 119.146 74.8136 118.961C75.2783 118.777 75.7013 118.502 76.0578 118.151C76.1271 118.084 76.22 118.046 76.3169 118.046C76.4137 118.046 76.5066 118.084 76.5759 118.151L77.3729 118.907C77.4459 118.982 77.4868 119.082 77.4868 119.186C77.4868 119.29 77.4459 119.39 77.3729 119.464C76.9139 119.938 76.356 120.305 75.739 120.539C74.9443 120.865 74.0917 121.027 73.2325 121.016C72.1658 120.997 71.1172 120.738 70.164 120.26ZM87.7738 111.428H84.8647C84.759 111.428 84.6577 111.47 84.5829 111.544C84.5082 111.619 84.4662 111.72 84.4662 111.826V120.459C84.4662 120.564 84.4242 120.666 84.3495 120.74C84.2747 120.815 84.1734 120.857 84.0677 120.857H82.7925C82.6868 120.857 82.5854 120.815 82.5107 120.74C82.436 120.666 82.394 120.564 82.394 120.459V111.826C82.394 111.72 82.352 111.619 82.2773 111.544C82.2025 111.47 82.1012 111.428 81.9955 111.428H79.1422C79.0365 111.428 78.9352 111.386 78.8605 111.311C78.7857 111.237 78.7437 111.136 78.7437 111.03V110.075C78.7437 109.97 78.7857 109.869 78.8605 109.794C78.9352 109.719 79.0365 109.677 79.1422 109.677H87.7897C87.8954 109.677 87.9967 109.719 88.0715 109.794C88.1462 109.869 88.1882 109.97 88.1882 110.075V111.03C88.1902 111.084 88.1807 111.137 88.1601 111.187C88.1396 111.236 88.1087 111.281 88.0694 111.318C88.0301 111.354 87.9833 111.382 87.9323 111.399C87.8813 111.416 87.8272 111.422 87.7738 111.416V111.428ZM91.9182 120.26C91.0197 119.787 90.2737 119.07 89.7663 118.191C89.2443 117.298 88.9693 116.282 88.9693 115.247C88.9693 114.213 89.2443 113.197 89.7663 112.303C90.2851 111.434 91.0283 110.719 91.9182 110.234C92.8645 109.738 93.9175 109.478 94.9866 109.478C96.0572 109.454 97.115 109.715 98.0511 110.234C98.9383 110.705 99.6818 111.406 100.203 112.263C100.725 113.157 101 114.173 101 115.207C101 116.242 100.725 117.258 100.203 118.151C99.6938 119.019 98.9472 119.722 98.0511 120.18C97.1062 120.677 96.0544 120.936 94.9866 120.936C93.9214 120.991 92.8612 120.758 91.9182 120.26ZM96.9751 118.669C97.569 118.354 98.0548 117.869 98.3699 117.276C98.71 116.654 98.8882 115.956 98.8882 115.247C98.8882 114.538 98.71 113.841 98.3699 113.218C98.0434 112.634 97.5605 112.152 96.9751 111.826C96.3639 111.492 95.6794 111.314 94.9826 111.309C94.2824 111.285 93.5903 111.465 92.9901 111.826C92.3963 112.14 91.9105 112.625 91.5954 113.218C91.2553 113.841 91.0771 114.538 91.0771 115.247C91.0771 115.956 91.2553 116.654 91.5954 117.276C91.9218 117.861 92.4048 118.343 92.9901 118.669C93.6016 119.002 94.286 119.18 94.9826 119.186C95.6836 119.201 96.3745 119.018 96.9751 118.657V118.669Z" fill="white"/>
<path d="M26.0977 79.0833L17.4104 85.8028V51.4729C17.4098 47.2782 18.3722 43.1392 20.2235 39.3736C22.0749 35.6081 24.766 32.3162 28.0902 29.7507L41.5556 19.367V47.6934C41.5486 53.7562 40.152 59.7371 37.4727 65.1779C34.7933 70.6187 30.9024 75.3753 26.0977 79.0833Z" fill="#FF490B"/>
<path d="M63.1503 80.0341L83.5894 95.7927V41.5269C83.5933 37.272 82.6196 33.073 80.7433 29.2527C78.867 25.4324 76.1379 22.0926 72.7661 19.4903L47.4932 0V48.1708C47.485 54.3242 48.8925 60.3973 51.6071 65.9218C54.3217 71.4462 58.271 76.2744 63.1503 80.0341Z" fill="#1C3454"/>
<path d="M83.5498 102.787H27.931C25.1326 102.78 22.4506 101.668 20.4722 99.6916C18.4938 97.7157 17.38 95.0378 17.3748 92.2439C31.6809 81.2675 55.065 81.3072 69.3313 92.3235L83.5538 102.787H83.5498Z" fill="#00AEC3"/>
</g>
<defs>
<clipPath id="clip0">
<rect width="101" height="121" fill="white"/>
</clipPath>
</defs>
</svg>
